<?xml version="1.0" encoding="UTF-8"?>
<svg width="256" height="256" viewBox="0 0 256 256" fill="none" xmlns="http://www.w3.org/2000/svg">
  <defs>
    <linearGradient id="g1" x1="0" y1="0" x2="1" y2="1">
      <stop offset="0%" stop-color="#22d3ee"/>
      <stop offset="100%" stop-color="#14b8a6"/>
    </linearGradient>
    <radialGradient id="glow" cx="50%" cy="50%" r="60%">
      <stop offset="0%" stop-color="rgba(34,211,238,0.9)"/>
      <stop offset="100%" stop-color="rgba(34,211,238,0)"/>
    </radialGradient>
  </defs>
  <rect width="256" height="256" rx="28" fill="#0b1220"/>
  <circle cx="128" cy="128" r="110" fill="url(#glow)"/>
  <g filter="url(#f1)">
    <path d="M128 38c-8 18-32 34-32 62 0 22 18 36 32 44 14-8 32-22 32-44 0-28-24-44-32-62z" fill="url(#g1)"/>
    <path d="M96 148c0 26 16 46 32 70 16-24 32-44 32-70 0-24-18-36-32-42-14 6-32 18-32 42z" fill="#08bdbd" opacity="0.9"/>
  </g>
  <g>
    <rect x="66" y="180" width="124" height="16" rx="8" fill="#eab308" opacity="0.95"/>
    <rect x="86" y="164" width="84" height="12" rx="6" fill="#fde68a" opacity="0.9"/>
  </g>
  <g>
    <circle cx="88" cy="94" r="10" fill="#38bdf8"/>
    <circle cx="168" cy="94" r="10" fill="#34d399"/>
    <rect x="100" y="84" width="56" height="20" rx="10" fill="#94a3b8" opacity="0.7"/>
  </g>
  <defs>
    <filter id="f1" x="0" y="0" width="256" height="256" filterUnits="userSpaceOnUse" color-interpolation-filters="sRGB">
      <feGaussianBlur in="SourceGraphic" stdDeviation="0.2"/>
    </filter>
  </defs>
  <text x="128" y="232" text-anchor="middle" font-family="Inter, system-ui, -apple-system, Segoe UI, Roboto, Ubuntu, Cantarell, Noto Sans, Helvetica Neue, Arial, \"Apple Color Emoji\", \"Segoe UI Emoji\"" font-size="18" fill="#c7d2fe">EduaiHub</text>
</svg>
